<?xml version="1.0" standalone="no"?>
<!DOCTYPE svg PUBLIC "-//W3C//DTD SVG 20010904//EN"
 "http://www.w3.org/TR/2001/REC-SVG-20010904/DTD/svg10.dtd">
<svg version="1.0" xmlns="http://www.w3.org/2000/svg"
 width="2965.000000pt" height="1854.000000pt" viewBox="0 0 2965.000000 1854.000000"
 preserveAspectRatio="xMidYMid meet">

<g transform="translate(0.000000,1854.000000) scale(0.100000,-0.100000)"
fill="#000000" stroke="none">
<path d="M15110 18079 c-850 -36 -1416 -120 -2175 -324 -140 -37 -470 -144
-635 -205 -47 -18 -96 -35 -110 -40 -56 -18 -343 -136 -515 -213 -87 -39 -497
-244 -585 -293 -837 -463 -1555 -1019 -2204 -1709 -447 -475 -817 -969 -1172
-1563 -41 -68 -74 -125 -74 -126 0 -1 -27 -52 -61 -112 -65 -117 -222 -428
-281 -559 -36 -79 -44 -98 -107 -243 -77 -177 -165 -412 -246 -662 -82 -251
-104 -324 -165 -550 -28 -104 -90 -375 -110 -485 -123 -664 -170 -1143 -170
-1730 0 -587 47 -1066 170 -1730 38 -202 121 -542 187 -760 36 -121 141 -443
162 -500 98 -263 132 -347 223 -555 84 -192 244 -517 337 -684 34 -60 61 -111
61 -112 0 -3 124 -210 190 -319 216 -352 549 -800 864 -1161 155 -177 581
-606 756 -761 192 -169 379 -323 550 -450 85 -64 178 -133 205 -154 143 -107
563 -373 790 -500 33 -19 74 -42 90 -51 53 -30 518 -262 590 -295 393 -175
756 -310 1150 -427 180 -53 280 -79 570 -146 486 -113 1029 -179 1718 -209
315 -13 836 14 1302 68 171 20 578 88 720 121 22 5 60 13 85 19 41 9 150 34
270 63 25 6 59 14 75 19 17 5 95 27 175 50 340 96 782 254 1088 390 96 43 134
60 180 80 162 72 531 265 747 391 1169 685 2187 1653 2927 2783 93 142 278
442 278 451 0 2 13 25 28 51 89 151 382 733 382 759 0 2 13 32 29 66 32 71
150 360 162 398 4 14 26 77 49 140 132 364 278 890 337 1210 3 14 13 68 23
120 157 798 193 1751 99 2605 -22 201 -69 516 -102 685 -9 41 -17 86 -20 100
-61 327 -205 845 -337 1210 -23 63 -45 126 -49 140 -11 34 -137 342 -167 408
-13 29 -24 54 -24 56 0 14 -215 452 -300 611 -59 111 -198 351 -232 402 -15
23 -28 44 -28 48 0 12 -267 410 -366 545 -296 406 -526 673 -913 1061 -443
442 -832 763 -1322 1090 -270 180 -285 190 -594 366 -123 71 -588 306 -685
347 -25 11 -67 29 -95 42 -367 165 -962 368 -1370 468 -37 9 -200 47 -240 56
-530 119 -1098 189 -1670 205 -110 3 -211 7 -225 9 -14 2 -113 -1 -220 -5z
m770 -104 c350 -25 675 -64 953 -115 31 -5 81 -14 110 -19 70 -13 203 -39 252
-51 302 -71 596 -150 745 -200 30 -10 78 -25 105 -34 28 -8 102 -33 165 -56
63 -23 126 -45 140 -49 32 -11 388 -155 460 -188 30 -13 82 -36 115 -51 82
-37 493 -242 585 -293 375 -207 800 -486 1145 -754 466 -361 987 -864 1361
-1315 355 -429 686 -912 929 -1355 21 -38 47 -86 58 -105 27 -47 209 -414 235
-470 70 -156 108 -246 167 -390 26 -63 56 -137 65 -165 10 -27 32 -88 50 -135
146 -393 295 -942 370 -1365 123 -689 170 -1355 140 -1967 -22 -443 -63 -804
-140 -1233 -76 -428 -212 -929 -375 -1380 -36 -102 -161 -415 -196 -492 -10
-24 -28 -63 -39 -88 -11 -25 -30 -66 -41 -92 -30 -66 -204 -415 -238 -477 -16
-28 -51 -91 -78 -141 -654 -1180 -1669 -2270 -2810 -3019 -145 -95 -250 -161
-328 -206 -16 -9 -68 -40 -115 -67 -173 -102 -612 -329 -770 -397 -36 -16 -83
-37 -105 -46 -129 -57 -456 -187 -545 -216 -41 -14 -84 -29 -95 -34 -11 -5
-51 -19 -90 -31 -38 -11 -95 -29 -125 -39 -180 -61 -581 -166 -835 -220 -266
-56 -620 -111 -910 -140 -550 -56 -1273 -54 -1819 6 -179 19 -440 56 -588 84
-32 5 -82 14 -110 19 -46 8 -165 33 -303 62 -256 53 -831 224 -1090 324 -125
48 -419 166 -475 192 -30 13 -82 36 -115 51 -130 58 -459 225 -615 312 -723
403 -1334 864 -1921 1450 -610 610 -1055 1196 -1476 1945 -81 144 -277 531
-317 625 -19 44 -40 93 -86 194 -48 107 -171 430 -228 601 -133 395 -212 687
-293 1080 -35 170 -53 278 -84 490 -121 844 -121 1656 0 2500 31 216 50 323
85 495 12 58 26 125 31 150 90 446 318 1140 534 1625 14 33 38 87 53 120 52
118 225 457 306 602 268 479 564 911 905 1323 361 436 826 893 1266 1246 489
393 1005 723 1560 1000 176 88 380 184 390 184 2 0 33 13 67 28 62 28 277 115
412 167 368 141 992 313 1391 385 418 75 668 107 1110 139 194 14 873 12 1095
-4z"/>
<path d="M14945 17729 c-447 -21 -1004 -90 -1360 -169 -22 -5 -62 -14 -90 -20
-325 -69 -755 -193 -1045 -300 -47 -18 -96 -35 -110 -40 -32 -10 -339 -135
-408 -166 -29 -13 -54 -24 -56 -24 -7 0 -187 -86 -331 -157 -977 -485 -1829
-1138 -2571 -1969 -380 -424 -777 -983 -1044 -1465 -29 -52 -66 -119 -83 -149
-36 -64 -204 -402 -237 -475 -184 -410 -302 -726 -420 -1125 -49 -164 -116
-421 -140 -535 -7 -33 -16 -73 -20 -90 -4 -16 -13 -59 -20 -95 -6 -36 -15 -83
-20 -105 -20 -87 -71 -423 -90 -595 -83 -725 -74 -1463 26 -2170 20 -143 53
-346 64 -395 5 -22 14 -69 20 -105 7 -36 16 -78 20 -95 4 -16 13 -57 20 -90
42 -197 147 -577 225 -810 101 -300 187 -518 337 -855 12 -25 62 -128 113
-230 569 -1146 1381 -2140 2386 -2920 384 -300 710 -513 1174 -770 106 -59
576 -290 590 -290 2 0 34 -13 70 -30 36 -16 68 -30 70 -30 2 0 28 -11 57 -24
272 -124 822 -303 1238 -404 739 -180 1562 -264 2290 -233 430 17 796 55 1150
117 47 8 108 19 135 24 67 11 201 38 250 50 411 97 550 136 885 248 170 56
454 162 556 207 19 8 49 21 67 29 353 152 696 328 1057 544 99 59 441 284 505
331 396 296 514 390 750 600 799 714 1472 1596 1944 2551 80 163 99 203 164
350 207 468 413 1091 507 1535 7 33 16 74 20 90 4 17 13 57 19 90 6 33 19 105
30 160 10 55 24 134 30 175 7 41 16 102 21 135 56 369 90 826 90 1230 0 404
-34 861 -90 1230 -5 33 -14 94 -21 135 -6 41 -20 120 -30 175 -11 55 -24 127
-30 160 -6 33 -15 74 -19 90 -4 17 -13 57 -20 90 -78 367 -288 1033 -421 1331
-10 22 -27 65 -39 94 -42 107 -127 290 -224 485 -663 1328 -1690 2482 -2936
3297 -685 449 -1355 763 -2165 1017 -376 118 -878 228 -1300 285 -217 30 -268
35 -445 51 -383 33 -739 41 -1095 24z m855 -94 c279 -17 388 -27 679 -65 71
-9 340 -54 476 -80 276 -52 673 -157 1005 -267 120 -39 464 -166 528 -194 23
-11 62 -28 87 -39 25 -11 47 -20 50 -20 2 0 28 -11 57 -24 29 -13 76 -34 103
-46 75 -34 451 -221 520 -259 737 -409 1349 -866 1920 -1436 555 -553 969
-1096 1395 -1830 109 -187 298 -570 390 -790 23 -55 51 -120 62 -145 54 -125
180 -472 228 -630 18 -58 36 -116 41 -130 48 -144 164 -612 200 -807 5 -29 14
-79 19 -110 46 -250 82 -525 112 -863 8 -95 13 -313 13 -635 0 -322 -5 -540
-13 -635 -30 -338 -66 -613 -112 -862 -5 -32 -14 -82 -19 -110 -46 -257 -173
-742 -266 -1023 -46 -137 -164 -455 -198 -535 -9 -19 -22 -51 -30 -70 -125
-298 -303 -661 -427 -875 -418 -720 -821 -1252 -1359 -1795 -240 -241 -355
-346 -677 -616 -73 -60 -365 -280 -479 -359 -400 -279 -895 -563 -1312 -751
-29 -13 -78 -35 -108 -49 -31 -14 -58 -25 -60 -25 -2 0 -30 -12 -61 -26 -354
-162 -1014 -369 -1509 -473 -197 -42 -316 -63 -495 -90 -708 -106 -1469 -120
-2185 -40 -238 26 -598 83 -760 119 -22 5 -85 19 -140 31 -338 72 -731 190
-1110 331 -158 59 -175 65 -267 107 -26 11 -50 21 -53 21 -2 0 -28 11 -57 24
-29 13 -87 38 -128 56 -176 77 -508 247 -725 373 -66 38 -129 75 -140 81 -174
95 -669 441 -930 650 -402 322 -865 776 -1175 1150 -36 43 -83 99 -104 125
-87 103 -343 453 -459 629 -158 239 -254 397 -395 653 -37 66 -210 414 -241
482 -11 26 -31 68 -42 95 -12 26 -30 67 -41 91 -82 182 -237 606 -308 841 -17
58 -35 116 -40 130 -12 32 -113 427 -130 505 -7 33 -16 74 -20 90 -4 17 -13
59 -20 95 -6 36 -15 85 -20 110 -18 97 -47 269 -55 330 -68 508 -80 692 -80
1215 0 288 5 514 13 605 31 350 67 639 112 883 5 31 14 81 19 110 11 56 18 94
49 232 23 106 118 479 132 515 5 14 23 72 40 130 73 242 216 634 294 804 14
31 26 59 26 62 0 2 18 43 40 90 22 47 40 88 40 90 0 17 233 468 323 624 802
1396 1944 2506 3356 3262 137 74 514 258 527 258 2 0 27 11 56 24 252 115 616
247 1003 364 85 26 441 118 516 133 30 6 72 15 94 20 132 30 463 86 640 108
185 24 247 30 375 41 378 32 843 38 1210 15z"/>
<path d="M15417 16889 c-144 -34 -235 -143 -245 -294 -5 -84 8 -139 45 -187
37 -47 86 -76 216 -128 115 -45 147 -72 147 -121 0 -18 -11 -41 -29 -61 -27
-30 -34 -33 -88 -32 -73 0 -122 17 -179 60 -24 19 -48 34 -53 34 -10 0 -111
-176 -111 -194 0 -17 96 -68 180 -96 89 -30 260 -30 338 -1 120 45 187 123
213 249 25 118 -21 237 -114 300 -39 26 -97 52 -190 83 -21 7 -53 26 -72 42
-45 36 -46 69 -4 108 26 24 40 29 80 29 46 0 132 -30 145 -51 14 -23 36 -2 78
76 25 47 46 91 46 99 0 23 -106 66 -214 85 -69 13 -135 13 -189 0z"/>
<path d="M14490 16829 c-25 -4 -66 -8 -92 -8 l-48 -1 0 -39 c0 -22 9 -120 20
-218 11 -98 25 -221 30 -273 46 -407 54 -470 59 -470 26 1 202 21 223 26 26 5
28 9 23 42 -3 20 -25 228 -50 462 -58 542 -49 490 -88 489 -18 -1 -52 -5 -77
-10z"/>
<path d="M13602 16690 c-51 -15 -96 -30 -99 -33 -3 -3 21 -97 52 -209 32 -112
62 -219 67 -238 18 -67 26 -95 33 -112 4 -10 3 -18 -1 -18 -5 0 -75 48 -155
108 -81 59 -219 160 -307 225 l-161 118 -117 -34 c-65 -19 -120 -39 -122 -46
-4 -11 22 -119 48 -201 4 -14 13 -43 19 -65 6 -22 49 -176 96 -343 47 -167 85
-310 85 -318 0 -8 6 -17 14 -20 14 -5 225 52 238 64 3 4 -14 77 -38 162 -24
85 -58 205 -75 265 -16 61 -33 118 -36 128 -3 9 0 17 6 17 6 0 82 -52 168
-117 87 -64 187 -138 223 -164 36 -26 99 -73 140 -103 41 -31 83 -56 93 -56
39 0 237 63 237 76 0 7 -4 23 -9 36 -5 13 -19 61 -31 108 -12 47 -26 96 -30
110 -9 30 -11 38 -105 375 -42 149 -80 280 -85 293 -12 28 -31 27 -148 -8z"/>
<path d="M17406 16534 c-144 -35 -278 -140 -341 -268 -35 -70 -64 -182 -65
-243 0 -59 30 -177 62 -243 42 -86 141 -186 228 -228 75 -37 180 -62 263 -62
56 0 58 1 71 33 24 57 79 247 74 252 -3 3 -20 -3 -39 -12 -19 -10 -64 -19
-101 -21 -55 -3 -76 0 -120 20 -125 58 -195 199 -157 319 52 166 205 247 364
192 52 -17 145 -99 145 -128 0 -23 19 -18 29 8 5 12 19 56 31 97 12 41 26 85
31 98 19 49 11 68 -43 104 -133 87 -289 117 -432 82z"/>
<path d="M12075 16164 c-55 -29 -104 -59 -109 -66 -8 -14 3 -38 185 -377 43
-80 76 -148 73 -152 -2 -4 -17 -1 -32 6 -15 7 -48 23 -74 34 -27 12 -68 30
-93 41 -25 11 -66 29 -92 41 -27 12 -61 27 -78 34 -16 8 -97 44 -179 80 l-149
66 -51 -27 c-119 -63 -176 -96 -176 -101 0 -3 13 -29 29 -57 16 -28 50 -91 76
-141 26 -49 62 -117 80 -150 18 -33 56 -105 85 -160 29 -55 65 -122 80 -150
15 -27 47 -87 70 -132 23 -46 47 -83 51 -83 16 0 219 113 219 122 0 8 -54 112
-105 203 -66 118 -164 313 -159 317 4 5 188 -73 419 -176 17 -8 53 -24 80 -36
28 -12 78 -35 113 -51 35 -16 70 -29 78 -29 23 0 215 102 221 116 4 12 -44
109 -165 334 -19 36 -53 99 -75 140 -22 41 -52 98 -67 125 -15 28 -53 100 -85
160 -32 61 -61 113 -64 116 -3 3 -51 -18 -106 -47z"/>
<path d="M18335 16048 c-43 -90 -141 -291 -217 -447 -77 -156 -138 -284 -136
-285 2 -2 53 -27 113 -56 61 -29 172 -84 248 -122 77 -37 143 -65 148 -62 13
8 89 160 89 177 0 8 -58 43 -136 81 -74 36 -133 69 -131 73 2 5 31 64 65 133
33 69 105 219 161 333 56 114 101 214 101 222 0 13 -194 115 -218 115 -5 0
-44 -73 -87 -162z"/>
<path d="M19358 15683 c-15 -18 -127 -174 -265 -368 -139 -197 -163 -251 -163
-367 0 -65 5 -89 25 -129 36 -73 81 -124 160 -183 211 -159 388 -161 543 -8
48 47 405 531 419 568 3 9 -185 154 -200 154 -3 0 -76 -100 -163 -222 -237
-336 -259 -358 -347 -358 -31 0 -56 8 -90 30 -88 56 -109 132 -62 226 14 27
101 156 195 287 93 130 170 241 170 245 0 10 -184 142 -197 142 -6 0 -17 -8
-25 -17z"/>
<path d="M10581 15224 c-200 -158 -221 -178 -208 -193 8 -9 148 -184 311 -388
163 -205 299 -373 302 -373 12 0 434 342 434 352 0 11 -106 148 -124 160 -5 3
-42 -20 -82 -53 -39 -32 -92 -74 -117 -93 l-45 -34 -24 26 c-36 39 -78 97 -78
108 0 5 17 22 38 37 85 63 119 90 150 118 l32 30 -63 76 c-34 42 -67 78 -73
80 -6 2 -59 -35 -118 -82 -58 -47 -110 -84 -115 -81 -14 9 -91 112 -91 123 0
5 47 46 103 91 57 45 109 87 115 95 8 10 -2 29 -44 82 -31 39 -61 76 -68 83
-10 10 -55 -21 -235 -164z"/>
<path d="M14875 15209 c-417 -33 -814 -104 -1200 -213 -95 -26 -386 -120 -420
-135 -11 -5 -69 -28 -130 -52 -211 -81 -453 -195 -680 -319 -933 -510 -1730
-1285 -2270 -2205 -134 -228 -301 -564 -386 -776 -382 -955 -513 -1969 -388
-2989 50 -414 154 -855 289 -1230 23 -63 45 -126 50 -140 12 -38 69 -178 96
-238 13 -29 24 -55 24 -57 0 -14 204 -418 266 -525 395 -691 904 -1282 1514
-1759 454 -354 968 -649 1475 -846 66 -26 129 -51 140 -56 41 -18 334 -111
450 -144 162 -45 329 -85 440 -106 33 -6 80 -15 105 -19 322 -61 664 -90 1063
-90 368 0 701 27 1000 80 164 29 173 31 312 61 247 52 703 195 910 284 17 7
71 30 120 50 109 44 394 183 525 255 89 49 121 69 305 180 101 62 271 180 415
289 538 407 993 890 1368 1452 372 559 631 1135 812 1809 39 148 88 387 119
590 58 372 81 790 63 1152 -11 213 -31 449 -48 558 -3 19 -9 64 -15 100 -220
1441 -969 2761 -2089 3684 -497 410 -1020 720 -1615 956 -294 117 -709 240
-1010 299 -247 48 -485 80 -758 101 -148 12 -705 11 -852 -1z m-2320 -3209
c544 -60 1014 -285 1439 -689 55 -53 177 -191 257 -291 143 -179 304 -481 382
-720 109 -332 137 -720 72 -1015 -34 -159 -55 -221 -125 -370 -121 -259 -341
-501 -585 -644 -234 -136 -420 -193 -727 -222 -161 -15 -325 -2 -558 43 -30 5
-66 14 -80 18 -14 4 -45 13 -70 20 -79 22 -123 37 -205 70 -493 196 -945 579
-1228 1041 -160 261 -267 543 -316 831 -131 764 187 1449 818 1764 278 139
615 198 926 164z m5760 -4 c396 -50 687 -188 945 -446 180 -180 323 -419 380
-635 5 -16 15 -55 23 -85 62 -236 64 -582 7 -837 -44 -191 -69 -273 -135 -428
-187 -437 -509 -828 -914 -1106 -125 -87 -159 -106 -326 -188 -343 -169 -742
-251 -1071 -221 -455 41 -819 216 -1084 522 -225 260 -346 558 -381 939 -27
297 40 670 178 989 132 305 316 565 581 821 225 219 465 380 747 504 22 9 49
21 60 26 11 5 75 27 141 49 286 94 590 129 849 96z m-3541 -3038 c3 -29 10
-105 17 -168 13 -135 41 -275 76 -380 54 -165 170 -369 284 -501 46 -53 52
-56 95 -56 42 0 51 5 84 41 122 133 230 319 289 496 52 158 65 217 81 370 6
58 14 137 18 175 9 85 26 92 51 19 10 -28 39 -92 64 -141 l46 -91 -14 -86
c-21 -130 -60 -277 -95 -361 -82 -197 -194 -377 -317 -508 -53 -56 -50 -75 5
-29 219 187 362 271 587 349 98 34 312 83 361 83 14 0 84 -29 156 -65 73 -36
138 -65 145 -65 7 0 13 -4 13 -9 0 -4 -55 -13 -122 -20 -301 -29 -483 -74
-668 -164 -101 -49 -237 -139 -308 -202 -27 -25 -57 -45 -65 -45 -8 0 -18 -7
-21 -16 -3 -9 -6 -162 -6 -340 0 -178 -3 -324 -7 -324 -4 0 -67 60 -140 132
l-133 133 -133 -133 c-73 -72 -138 -132 -145 -132 -9 0 -12 64 -12 277 l0 277
-27 28 -27 28 23 24 22 24 -72 62 c-116 100 -266 190 -434 261 -98 41 -295 85
-448 99 -203 20 -227 23 -227 31 0 5 6 9 13 9 7 0 72 29 145 65 72 36 144 65
161 65 52 0 234 -40 341 -76 130 -43 291 -121 390 -187 79 -53 207 -154 229
-181 7 -9 21 -16 29 -16 11 0 3 14 -24 43 -89 93 -188 233 -256 362 -77 145
-156 397 -172 545 -7 65 -7 66 53 190 34 69 61 133 61 143 0 9 6 17 14 17 10
0 16 -16 20 -52z m-4 -1919 l0 -332 -102 -103 c-56 -57 -105 -104 -110 -104
-4 0 -8 150 -8 332 l0 333 102 102 c57 57 106 103 110 103 5 0 8 -149 8 -331z
m1078 227 l102 -103 0 -326 c0 -179 -4 -328 -9 -331 -4 -3 -54 40 -110 97
l-101 102 0 333 c0 182 4 332 8 332 5 0 54 -47 110 -104z m-1488 -638 l0 -331
-104 -106 c-58 -58 -108 -103 -111 -99 -3 3 -6 153 -6 334 l1 328 102 103 c57
57 106 103 110 103 5 0 8 -149 8 -332z m1897 228 l103 -104 0 -331 c0 -182 -3
-331 -8 -331 -4 0 -55 47 -112 105 l-105 105 -3 330 c-2 262 0 330 10 330 7 0
59 -47 115 -104z m-2307 -633 l0 -326 -26 -34 c-41 -54 -101 -93 -143 -93 -45
0 -67 14 -159 104 -121 117 -150 172 -121 229 12 25 430 447 441 447 5 0 8
-147 8 -327z m2822 120 c113 -115 211 -218 217 -230 6 -12 11 -41 11 -64 0
-41 -5 -47 -118 -161 -109 -108 -122 -118 -156 -118 -48 0 -81 18 -134 72
l-43 44 0 325 c0 381 -1 339 9 339 4 0 100 -93 214 -207z"/>
<path d="M12176 11819 c-288 -33 -574 -162 -781 -351 -189 -173 -332 -420
-393 -678 -29 -121 -34 -158 -39 -335 -4 -150 -2 -213 11 -300 66 -427 229
-777 529 -1133 188 -223 450 -430 722 -569 216 -111 389 -167 660 -215 87 -15
432 -16 500 -1 28 6 77 17 110 23 165 34 384 132 520 232 301 223 500 580 539
968 16 158 17 196 7 306 -29 306 -90 524 -223 787 -146 287 -372 568 -623 771
-169 138 -410 284 -590 356 -310 125 -646 175 -949 139z m284 -285 l5 -169
135 0 135 0 3 153 c2 143 4 152 22 152 28 0 32 -28 28 -174 -4 -150 -17 -138
152 -134 l115 3 5 100 c4 80 8 100 20 100 12 0 16 -20 20 -100 l5 -100 135 0
c132 0 135 0 138 23 4 27 32 29 39 3 3 -12 21 -25 46 -33 56 -18 59 -36 6 -40
l-41 -3 1 -130 c1 -71 6 -134 10 -138 4 -4 64 -6 132 -5 l124 3 3 63 c2 34 6
62 9 62 4 0 15 -7 25 -17 13 -11 18 -30 18 -65 l0 -48 49 0 c46 0 81 -17 81
-40 0 -4 -29 -5 -65 -2 l-65 5 0 -142 0 -141 135 0 135 0 0 50 c0 48 1 50 20
40 12 -7 22 -25 26 -50 5 -29 11 -40 24 -40 10 0 23 -7 31 -16 10 -13 10 -17
-2 -25 -8 -5 -22 -9 -32 -9 -16 0 -17 -11 -15 -132 l3 -133 105 -5 c100 -5
105 -6 108 -27 3 -23 2 -23 -107 -23 l-111 0 0 -135 0 -135 163 -2 c159 -3
162 -3 165 -25 l3 -23 -165 0 -166 0 0 -135 0 -135 178 0 c97 0 183 -4 191 -9
8 -5 11 -16 8 -25 -6 -14 -31 -16 -192 -16 l-185 0 0 -135 c0 -101 3 -135 13
-135 6 -1 86 -2 177 -3 162 -2 165 -2 168 -24 3 -22 3 -23 -175 -25 l-178 -3
-3 -132 -3 -133 136 0 c136 0 136 0 133 -22 -3 -22 -7 -23 -136 -26 l-133 -3
3 -137 3 -137 38 -3 c20 -2 37 -7 37 -11 0 -18 -34 -36 -72 -40 -5 -1 -8 -9
-8 -19 0 -23 -29 -64 -41 -57 -5 4 -9 21 -9 40 0 21 -6 35 -16 39 -9 3 -69 6
-135 6 l-118 0 -3 -137 c-3 -134 -4 -138 -25 -141 -22 -3 -22 -1 -25 135 l-3
138 -130 0 -130 0 -6 -190 c-3 -104 -6 -191 -7 -192 -1 -2 -11 -3 -22 -3 -19
0 -20 7 -20 190 0 223 17 202 -160 198 l-115 -3 -3 -202 c-2 -194 -3 -203 -22
-203 -19 0 -20 9 -22 203 l-3 202 -124 3 c-68 1 -129 -2 -134 -7 -5 -5 -8 -82
-8 -172 1 -90 -3 -170 -8 -178 -5 -8 -16 -11 -25 -8 -14 6 -16 30 -16 181 0
207 16 188 -160 184 l-115 -3 -3 -132 c-2 -108 -5 -133 -17 -133 -27 0 -36 39
-34 144 1 57 -2 109 -5 115 -8 13 -234 15 -254 2 -9 -5 -13 -23 -11 -52 4 -43
2 -45 -31 -40 -5 0 -10 21 -10 45 0 40 -3 45 -27 50 -16 3 -44 5 -63 4 -37 -1
-80 16 -80 32 0 5 37 10 83 12 l82 3 0 135 0 135 -137 3 -138 3 0 -90 c0 -49
-4 -92 -9 -96 -22 -13 -41 40 -41 112 l0 73 -80 0 c-68 0 -81 3 -90 19 -5 11
-10 22 -10 25 0 3 41 6 90 6 l90 0 0 135 0 136 -132 -3 -133 -3 -3 -77 c-2
-43 -7 -78 -11 -78 -17 0 -41 68 -41 114 0 46 0 46 -34 46 -35 0 -63 21 -51
40 3 5 24 10 46 10 l39 0 0 135 0 135 -114 0 c-87 0 -116 3 -126 15 -23 28 0
35 121 35 l119 0 0 135 0 135 -167 2 c-166 3 -168 3 -171 26 l-3 22 170 0 171
0 0 135 0 135 -177 0 c-98 0 -184 4 -192 9 -8 5 -11 16 -8 25 6 14 31 16 192
16 l185 0 0 135 0 135 -172 2 c-165 3 -173 4 -173 23 0 19 8 20 174 25 l173 5
-1 129 c-1 71 -4 134 -7 138 -3 5 -54 9 -112 8 -145 -2 -134 -3 -122 20 10 18
21 20 125 20 l114 0 3 137 c3 123 1 137 -14 141 -25 6 -23 13 18 45 32 26 37
27 47 13 10 -14 31 -16 137 -14 l125 3 3 107 c2 80 6 109 18 119 26 21 33 -2
36 -116 l3 -110 135 0 135 0 5 165 c4 138 7 165 20 165 13 0 16 -27 20 -165
l5 -165 134 0 134 0 -2 158 c-2 112 1 163 10 173 28 33 34 7 39 -162z"/>
<path d="M11504 11307 c-2 -7 -3 -69 -2 -138 l3 -124 133 -3 132 -3 0 141 0
140 -130 0 c-98 0 -132 -3 -136 -13z"/>
<path d="M11820 11180 l0 -141 138 3 137 3 0 135 0 135 -137 3 -138 3 0 -141z"/>
<path d="M12147 11314 c-9 -9 -9 -236 -1 -258 5 -13 27 -16 135 -16 71 0 129
3 129 8 0 4 1 66 1 137 l1 130 -129 3 c-71 1 -132 -1 -136 -4z"/>
<path d="M12462 11183 l3 -138 135 0 135 0 0 135 0 135 -138 3 -138 3 3 -138z"/>
<path d="M12789 11313 c0 -7 0 -248 1 -266 0 -4 60 -6 133 -5 l132 3 0 135 0
135 -132 3 c-73 1 -133 -1 -134 -5z"/>
<path d="M13107 11314 c-10 -10 -8 -246 1 -262 7 -9 41 -12 138 -10 l129 3 0
135 0 135 -131 3 c-71 1 -133 -1 -137 -4z"/>
<path d="M11504 10987 c-2 -7 -3 -69 -2 -138 l3 -124 133 -3 133 -3 -3 138 -3
138 -128 3 c-99 2 -129 0 -133 -11z"/>
<path d="M11827 10993 c-4 -3 -7 -66 -7 -140 l0 -134 138 3 137 3 3 124 c2 82
-1 128 -9 137 -9 11 -41 14 -134 14 -67 0 -125 -3 -128 -7z"/>
<path d="M12145 10978 c-3 -13 -4 -75 -3 -138 l3 -115 133 0 133 0 0 128 c0
70 0 132 -1 137 0 6 -50 10 -130 10 -126 0 -130 -1 -135 -22z"/>
<path d="M12467 10993 c-4 -3 -7 -66 -7 -140 l0 -133 140 0 140 0 0 134 c0
113 -2 135 -16 140 -21 8 -249 8 -257 -1z"/>
<path d="M12795 10989 c-4 -6 -7 -67 -7 -137 l0 -127 134 0 133 0 3 115 c4
173 15 160 -133 160 -77 0 -126 -4 -130 -11z"/>
<path d="M13105 10978 c-3 -13 -4 -75 -3 -138 l3 -115 138 -3 137 -3 0 135 c0
113 -2 135 -16 140 -9 3 -69 6 -135 6 -115 0 -119 -1 -124 -22z"/>
<path d="M13436 10992 c-3 -5 -6 -67 -7 -138 l-1 -129 136 -3 137 -3 -3 138
-3 138 -127 3 c-69 1 -129 -1 -132 -6z"/>
<path d="M11502 10538 l3 -133 133 -3 132 -3 0 136 0 135 -135 0 -136 0 3
-132z"/>
<path d="M11820 10535 l0 -136 138 3 137 3 3 133 3 132 -141 0 -140 0 0 -135z"/>
<path d="M12142 10538 l3 -133 133 -3 c72 -1 132 1 132 5 0 4 1 65 3 136 l2
127 -138 0 -138 0 3 -132z"/>
<path d="M12460 10535 l0 -136 138 3 137 3 3 133 3 132 -141 0 -140 0 0 -135z"/>
<path d="M12787 10543 c2 -71 3 -132 3 -136 0 -4 60 -6 133 -5 l132 3 3 133 3
132 -138 0 -138 0 2 -127z"/>
<path d="M13102 10538 l3 -133 135 0 135 0 3 133 3 132 -141 0 -141 0 3 -132z"/>
<path d="M13430 10535 l0 -135 135 0 135 0 0 135 0 135 -135 0 -135 0 0 -135z"/>
<path d="M13750 10535 l0 -136 133 3 132 3 3 133 3 132 -136 0 -135 0 0 -135z"/>
<path d="M11628 10352 l-128 -3 0 -134 0 -135 135 0 135 0 0 134 c0 74 -3 136
-7 138 -5 2 -65 2 -135 0z"/>
<path d="M12270 10350 l-125 -5 -3 -133 -3 -133 136 3 136 3 0 129 c0 71 -3
132 -8 135 -4 3 -64 4 -133 1z"/>
<path d="M13558 10352 l-127 -3 -3 -130 c-2 -72 -1 -133 1 -135 2 -2 64 -4
138 -4 l133 0 0 134 c0 74 -3 136 -7 138 -5 2 -65 2 -135 0z"/>
<path d="M13754 10351 c-2 -2 -4 -64 -4 -138 l0 -133 135 0 135 0 0 134 0 135
-131 3 c-72 2 -133 1 -135 -1z"/>
<path d="M11820 10215 l0 -135 140 0 141 0 -3 133 -3 132 -137 3 -138 3 0
-136z"/>
<path d="M12460 10215 l0 -135 140 0 140 0 0 135 0 135 -140 0 -140 0 0 -135z"/>
<path d="M12790 10340 c-1 -5 -1 -65 -1 -132 l0 -123 136 -3 136 -3 -3 133 -3
133 -132 3 c-86 2 -133 -1 -133 -8z"/>
<path d="M13107 10343 c-4 -3 -7 -64 -7 -135 l0 -128 140 0 140 0 0 135 0 135
-133 0 c-74 0 -137 -3 -140 -7z"/>
<path d="M11502 9898 l3 -133 133 -3 132 -3 0 136 0 135 -135 0 -136 0 3 -132z"/>
<path d="M11820 9895 l0 -136 138 3 137 3 3 133 3 132 -141 0 -140 0 0 -135z"/>
<path d="M12144 10017 c-2 -7 -3 -67 -2 -133 l3 -119 133 -3 c85 -2 132 1 132
8 1 5 1 65 1 133 l0 122 -130 3 c-103 2 -133 0 -137 -11z"/>
<path d="M12460 9895 l0 -136 138 3 137 3 3 133 3 132 -141 0 -140 0 0 -135z"/>
<path d="M12790 10025 c-1 -3 -1 -59 -1 -125 0 -66 0 -125 1 -130 0 -7 47 -10
133 -8 l132 3 3 133 3 132 -136 0 c-74 0 -135 -2 -135 -5z"/>
<path d="M13104 10017 c-2 -7 -3 -67 -2 -133 l3 -119 138 -3 137 -3 0 136 0
135 -135 0 c-103 0 -137 -3 -141 -13z"/>
<path d="M13430 9895 l0 -135 135 0 135 0 0 135 0 135 -135 0 -135 0 0 -135z"/>
<path d="M13750 9895 l0 -135 135 0 135 0 0 135 0 135 -135 0 -135 0 0 -135z"/>
<path d="M11504 9697 c-2 -7 -3 -69 -2 -136 l3 -123 130 0 130 1 3 135 3 136
-131 0 c-98 0 -132 -3 -136 -13z"/>
<path d="M11820 9575 l0 -135 140 0 141 0 -3 133 -3 132 -137 3 -138 3 0 -136z"/>
<path d="M12147 9703 c-11 -11 -8 -263 3 -263 72 -3 253 0 257 3 3 4 6 185 3
257 0 11 -252 14 -263 3z"/>
<path d="M12460 9577 c0 -74 2 -136 4 -138 2 -2 65 -3 140 -1 l136 3 0 135 0
134 -140 0 -140 0 0 -133z"/>
<path d="M12790 9703 c-4 -136 -4 -263 0 -263 3 0 64 -1 135 -1 l130 -1 0 133
0 134 -132 3 c-73 1 -133 -1 -133 -5z"/>
<path d="M13104 9697 c-7 -20 0 -257 9 -257 4 0 66 0 137 0 l130 0 0 135 0
135 -135 0 c-102 0 -137 -3 -141 -13z"/>
<path d="M13430 9576 l0 -135 131 -3 c72 -2 133 -1 135 1 2 2 4 64 4 138 l0
133 -135 0 -135 0 0 -134z"/>
<path d="M13750 9573 l0 -138 127 2 c71 2 131 3 136 3 4 0 7 61 7 135 l0 135
-135 0 -135 0 0 -137z"/>
<path d="M11820 9255 l0 -136 138 3 137 3 0 130 0 130 -137 3 -138 3 0 -136z"/>
<path d="M12144 9377 c-2 -7 -3 -67 -2 -133 l3 -119 133 0 133 0 1 130 0 130
-131 3 c-102 2 -133 0 -137 -11z"/>
<path d="M12460 9255 l0 -135 140 0 141 0 -3 133 -3 132 -137 3 -138 3 0 -136z"/>
<path d="M12789 9383 c0 -4 0 -64 0 -133 l0 -125 133 0 133 0 0 130 0 130
-132 3 c-73 1 -133 -1 -134 -5z"/>
<path d="M13104 9377 c-2 -7 -3 -67 -2 -133 l3 -119 138 -3 138 -3 -3 133 -3
133 -133 3 c-103 2 -134 0 -138 -11z"/>
<path d="M13430 9255 l0 -135 135 0 135 0 0 135 0 135 -135 0 -135 0 0 -135z"/>
<path d="M13750 9255 l0 -135 135 0 136 0 -3 133 -3 132 -132 3 -133 3 0 -136z"/>
<path d="M12144 9057 c-2 -7 -3 -69 -2 -138 l3 -124 133 -3 132 -3 0 141 0
140 -130 0 c-98 0 -132 -3 -136 -13z"/>
<path d="M12462 8933 l3 -138 135 0 135 0 0 135 0 135 -138 3 -138 3 3 -138z"/>
<path d="M12790 8930 l0 -141 133 3 132 3 0 135 0 135 -132 3 -133 3 0 -141z"/>
<path d="M13104 9057 c-2 -7 -3 -69 -2 -138 l3 -124 135 0 135 0 3 138 3 137
-136 0 c-102 0 -137 -3 -141 -13z"/>
<path d="M13432 8933 l3 -138 130 0 130 0 3 138 3 137 -136 0 -136 0 3 -137z"/>
<path d="M13750 8930 l0 -141 133 3 132 3 3 138 3 137 -136 0 -135 0 0 -140z"/>
<path d="M17910 11820 c-816 -89 -1603 -742 -1875 -1556 -121 -361 -136 -735
-44 -1059 113 -397 400 -719 777 -872 48 -20 102 -40 120 -44 17 -5 49 -14 70
-19 119 -32 215 -43 397 -43 223 -1 310 12 570 83 100 27 344 135 464 205 394
232 737 602 935 1008 47 97 112 258 127 312 72 274 82 345 82 570 0 181 -11
279 -42 395 -6 19 -14 51 -19 70 -45 174 -167 382 -315 537 -192 200 -415 324
-702 388 -100 23 -149 28 -295 30 -96 2 -209 0 -250 -5z m170 -285 l5 -170
130 0 130 0 3 162 c2 127 5 162 17 166 28 11 34 -21 37 -174 l3 -154 135 0
135 0 1 113 c1 62 4 115 7 119 4 3 13 0 21 -7 12 -9 16 -39 18 -118 l3 -107
129 -3 c113 -2 130 -1 141 15 13 17 15 16 44 -11 34 -33 39 -46 16 -46 -13 0
-15 -20 -13 -137 l3 -138 120 -5 c104 -4 120 -7 123 -22 2 -10 -2 -18 -10 -18
-7 -1 -62 -2 -123 -3 l-110 -2 -3 -137 -3 -138 175 0 c153 0 175 -2 180 -17 4
-9 1 -20 -6 -25 -7 -4 -88 -8 -180 -8 l-168 0 0 -135 0 -135 185 0 c161 0 186
-2 192 -16 3 -9 0 -20 -8 -25 -8 -5 -94 -9 -191 -9 l-178 0 0 -135 0 -135 173
-2 c164 -3 172 -4 172 -23 0 -19 -8 -20 -172 -23 l-173 -2 0 -135 0 -135 126
0 c124 0 125 0 122 -22 -3 -22 -7 -23 -125 -26 l-123 -3 0 -134 0 -135 38 0
c20 0 43 -4 51 -9 25 -16 -6 -41 -50 -41 l-39 0 0 -62 c0 -43 -5 -67 -17 -80
-28 -31 -34 -20 -32 60 l2 77 -134 0 -134 0 -3 -132 -3 -133 90 0 c49 0 92 -4
95 -9 14 -21 -32 -40 -104 -43 l-75 -3 -5 -82 c-5 -76 -20 -117 -37 -99 -4 4
-6 38 -5 77 5 114 12 109 -144 109 l-134 0 0 -140 0 -140 80 0 c45 0 80 -4 80
-10 0 -17 -43 -33 -84 -32 -64 3 -76 -4 -76 -47 0 -38 -14 -61 -36 -61 -8 0
-14 19 -16 53 l-3 52 -130 0 -130 0 -3 -122 c-2 -93 -6 -124 -18 -134 -26 -22
-33 3 -36 131 l-3 125 -110 3 c-170 4 -155 21 -155 -172 0 -91 -3 -171 -6
-180 -3 -9 -15 -16 -25 -16 -17 0 -19 12 -21 183 l-3 182 -130 0 -130 0 -5
-200 c-5 -192 -6 -200 -25 -200 -19 0 -20 8 -25 200 l-5 200 -105 3 c-58 2
-118 1 -135 -2 l-30 -6 3 -177 c1 -98 -2 -184 -7 -192 -5 -8 -16 -11 -25 -8
-14 6 -16 31 -16 191 0 218 16 198 -159 194 l-114 -3 2 -120 c3 -132 -2 -155
-30 -155 -17 0 -19 11 -21 138 l-3 137 -115 3 c-153 4 -160 2 -160 -48 0 -22
-4 -40 -10 -40 -13 0 -30 34 -30 59 0 12 -4 22 -10 22 -73 9 -96 46 -32 51
l37 3 3 115 c4 172 14 160 -131 160 -126 0 -154 7 -144 34 5 13 29 16 139 18
l133 3 0 130 0 130 -178 3 c-151 2 -179 5 -184 18 -11 29 20 34 182 34 88 -1
166 -1 173 0 9 0 12 31 12 119 0 66 -3 126 -6 135 -5 14 -32 16 -191 16 l-184
0 3 23 c3 22 5 22 188 27 l185 5 0 130 0 130 -160 3 c-88 1 -164 7 -169 12 -6
6 -4 15 4 25 10 12 40 15 172 15 l159 0 -3 133 -3 132 -105 3 c-109 3 -132 10
-110 37 10 12 34 15 110 15 80 0 99 3 104 16 3 9 6 69 6 135 l0 119 -24 0
c-14 0 -27 4 -30 9 -10 16 5 40 27 43 16 2 23 13 30 46 7 38 15 47 34 40 3 -2
7 -21 7 -43 l1 -40 138 -3 138 -3 -3 138 -3 138 -62 0 c-41 0 -63 4 -63 11 0
21 25 33 75 36 l50 3 3 52 c3 52 21 81 42 68 7 -4 11 -28 10 -54 -2 -25 -2
-52 -1 -58 1 -10 34 -13 131 -13 154 0 142 -13 138 160 l-3 115 -42 3 c-24 2
-43 7 -43 11 0 9 45 31 64 31 8 0 21 11 30 25 20 30 36 32 36 6 0 -27 18 -31
156 -31 l124 0 0 94 c0 70 4 97 15 106 27 23 35 0 35 -101 l0 -100 133 3 132
3 5 150 c5 146 6 150 27 153 22 3 22 2 25 -150 l3 -153 133 -3 132 -3 0 160
c0 171 3 194 29 189 14 -3 17 -27 21 -173z"/>
<path d="M17120 11315 c-1 -3 -1 -61 -1 -130 0 -69 0 -129 1 -135 0 -6 52 -10
135 -10 l135 0 0 140 0 140 -135 0 c-74 0 -135 -2 -135 -5z"/>
<path d="M17440 11180 l0 -141 133 3 132 3 0 135 0 135 -132 3 -133 3 0 -141z"/>
<path d="M17760 11180 l0 -140 135 0 135 0 0 140 0 140 -135 0 -135 0 0 -140z"/>
<path d="M18084 11307 c-2 -7 -3 -69 -2 -138 l3 -124 130 0 130 0 3 138 3 137
-131 0 c-98 0 -132 -3 -136 -13z"/>
<path d="M18400 11180 l0 -140 135 0 c159 0 147 -14 143 160 l-3 115 -137 3
-138 3 0 -141z"/>
<path d="M18724 11307 c-2 -7 -3 -69 -2 -138 l3 -124 132 -3 132 -3 3 137 c2
74 1 138 -1 140 -2 2 -62 4 -133 4 -97 0 -130 -3 -134 -13z"/>
<path d="M16800 10990 c-1 -5 -1 -67 -1 -137 l-1 -128 134 0 133 0 3 124 c2
82 -1 128 -9 137 -14 17 -259 21 -259 4z"/>
<path d="M17125 10990 c-4 -6 -7 -68 -7 -138 l0 -127 136 -3 137 -3 -3 138 -3
138 -127 3 c-84 2 -129 -1 -133 -8z"/>
<path d="M17447 10994 c-4 -4 -7 -67 -7 -141 l0 -133 135 0 136 0 -3 138 -3
137 -126 3 c-69 1 -128 -1 -132 -4z"/>
<path d="M17773 10994 c-10 -4 -13 -42 -13 -140 l0 -134 135 0 136 0 -3 138
-3 137 -120 2 c-66 1 -126 -1 -132 -3z"/>
<path d="M18087 10994 c-4 -4 -7 -67 -7 -141 l0 -133 135 0 136 0 -3 138 -3
137 -126 3 c-69 1 -128 -1 -132 -4z"/>
<path d="M18407 10993 c-4 -3 -7 -66 -7 -140 l0 -134 138 3 137 3 3 124 c2 82
-1 128 -9 137 -9 11 -41 14 -134 14 -67 0 -125 -3 -128 -7z"/>
<path d="M18724 10987 c-2 -7 -3 -69 -2 -138 l3 -124 134 0 133 0 -1 129 c-1
71 -4 133 -7 138 -3 4 -61 8 -130 8 -93 0 -126 -3 -130 -13z"/>
<path d="M16472 10538 l3 -133 138 -3 137 -3 0 136 0 135 -140 0 -141 0 3
-132z"/>
<path d="M16797 10543 c2 -71 3 -132 3 -136 0 -4 60 -6 133 -5 l132 3 3 133 3
132 -138 0 -138 0 2 -127z"/>
<path d="M17117 10543 c2 -71 3 -131 3 -135 0 -5 61 -8 135 -8 l135 0 0 135 0
135 -137 0 -138 0 2 -127z"/>
<path d="M17440 10535 l0 -136 133 3 132 3 3 133 3 132 -136 0 -135 0 0 -135z"/>
<path d="M17760 10535 l0 -135 135 0 135 0 0 135 0 135 -135 0 -135 0 0 -135z"/>
<path d="M18082 10538 l3 -133 133 -3 132 -3 0 136 0 135 -135 0 -136 0 3
-132z"/>
<path d="M18400 10535 l0 -135 134 0 c113 0 135 2 140 16 3 9 6 69 6 135 l0
119 -140 0 -140 0 0 -135z"/>
<path d="M18722 10538 l3 -133 132 -3 132 -3 3 132 c2 72 1 133 -1 135 -2 2
-64 4 -138 4 l-134 0 3 -132z"/>
<path d="M16605 10350 l-130 -5 -3 -132 -3 -133 141 0 140 0 0 134 c0 74 -3
136 -7 138 -5 2 -66 1 -138 -2z"/>
<path d="M16803 10347 c-2 -4 -4 -64 -4 -135 l0 -127 136 -3 136 -3 -3 133 -3
133 -128 5 c-71 3 -131 2 -134 -3z"/>
<path d="M17444 10351 c-2 -2 -4 -64 -4 -138 l0 -133 135 0 135 0 0 134 0 135
-131 3 c-72 2 -133 1 -135 -1z"/>
<path d="M18850 10350 l-125 -5 -3 -133 -3 -133 137 3 136 3 -1 130 c-1 72 -5
132 -9 135 -4 3 -63 3 -132 0z"/>
<path d="M17120 10340 c-1 -5 -1 -65 -1 -132 l0 -123 135 -3 136 -3 0 136 0
135 -135 0 c-83 0 -135 -4 -135 -10z"/>
<path d="M17760 10215 l0 -135 135 0 135 0 0 135 0 135 -135 0 -135 0 0 -135z"/>
<path d="M18080 10215 l0 -135 135 0 135 0 0 135 0 135 -135 0 -135 0 0 -135z"/>
<path d="M18400 10215 l0 -135 140 0 141 0 -3 133 -3 132 -137 3 -138 3 0
-136z"/>
<path d="M16474 10017 c-2 -7 -3 -67 -2 -133 l3 -119 138 -3 137 -3 0 136 0
135 -135 0 c-103 0 -137 -3 -141 -13z"/>
<path d="M16800 10028 c0 -2 -1 -61 -1 -133 l-1 -130 133 0 134 0 0 130 0 130
-132 3 c-73 1 -133 1 -133 0z"/>
<path d="M17120 10025 c-1 -3 -1 -62 -2 -132 l0 -128 136 -3 136 -3 0 136 0
135 -135 0 c-74 0 -135 -2 -135 -5z"/>
<path d="M17440 9895 l0 -136 133 3 132 3 3 133 3 132 -136 0 -135 0 0 -135z"/>
<path d="M17760 9895 l0 -135 135 0 135 0 0 135 0 135 -135 0 -135 0 0 -135z"/>
<path d="M18080 9895 l0 -135 135 0 135 0 0 135 0 135 -135 0 -135 0 0 -135z"/>
<path d="M18400 9895 l0 -136 138 3 137 3 0 130 0 130 -137 3 -138 3 0 -136z"/>
<path d="M18722 9898 l3 -133 132 -3 132 -3 3 132 c2 72 1 133 -1 135 -2 2
-64 4 -138 4 l-134 0 3 -132z"/>
<path d="M16477 9703 c-4 -3 -7 -64 -7 -134 l0 -128 136 -3 c75 -2 138 -1 140
1 2 2 4 64 4 138 l0 133 -133 0 c-74 0 -137 -3 -140 -7z"/>
<path d="M16800 9703 c-4 -155 -3 -263 3 -263 9 -1 244 -1 257 0 7 0 10 47 8
133 l-3 132 -132 3 c-73 1 -133 -1 -133 -5z"/>
<path d="M17120 9703 c-1 -5 -2 -65 -3 -135 l-2 -127 133 -3 c74 -2 136 -1
138 1 2 2 4 64 4 138 l0 133 -135 0 c-74 0 -135 -3 -135 -7z"/>
<path d="M17442 9574 l3 -135 123 0 c67 0 127 0 132 1 6 0 10 52 10 135 l0
135 -135 0 -136 0 3 -136z"/>
<path d="M17760 9575 l0 -135 135 0 135 0 0 135 0 135 -135 0 -135 0 0 -135z"/>
<path d="M18082 9574 l3 -135 130 0 130 0 3 135 3 136 -136 0 -136 0 3 -136z"/>
<path d="M18400 9575 l0 -135 140 0 140 0 0 119 c0 66 -3 126 -6 135 -5 14
-27 16 -140 16 l-134 0 0 -135z"/>
<path d="M18727 9703 c-11 -11 -8 -263 3 -263 6 -1 65 -1 133 -1 l122 0 3 135
3 136 -129 0 c-71 0 -132 -3 -135 -7z"/>
<path d="M16477 9383 c-10 -9 -9 -251 1 -257 5 -3 67 -6 138 -7 l129 -1 3 136
3 136 -134 0 c-74 0 -137 -3 -140 -7z"/>
<path d="M16800 9385 c-1 -3 -1 -62 -1 -132 l-1 -128 134 0 133 0 0 130 0 130
-132 3 c-73 1 -133 0 -133 -3z"/>
<path d="M17120 9385 c-1 -3 -1 -62 -2 -132 l0 -128 136 -3 136 -3 0 136 0
135 -135 0 c-74 0 -135 -2 -135 -5z"/>
<path d="M17440 9255 l0 -135 135 0 136 0 -3 133 -3 132 -132 3 -133 3 0 -136z"/>
<path d="M17760 9255 l0 -135 135 0 135 0 0 135 0 135 -135 0 -135 0 0 -135z"/>
<path d="M18087 9383 c-4 -3 -7 -64 -7 -135 l0 -128 135 0 135 0 0 135 0 135
-128 0 c-71 0 -132 -3 -135 -7z"/>
<path d="M18400 9255 l0 -136 138 3 137 3 0 130 0 130 -137 3 -138 3 0 -136z"/>
<path d="M16474 9057 c-2 -7 -3 -69 -2 -138 l3 -124 135 0 135 0 3 138 3 137
-136 0 c-102 0 -137 -3 -141 -13z"/>
<path d="M16800 9063 c-1 -4 -1 -66 -2 -138 l0 -130 133 0 134 0 0 135 0 135
-132 3 c-73 1 -133 -1 -133 -5z"/>
<path d="M17120 9063 c-1 -5 -1 -66 -2 -138 l0 -130 136 -3 136 -3 0 141 0
140 -135 0 c-74 0 -135 -3 -135 -7z"/>
<path d="M17440 8930 l0 -141 133 3 132 3 0 135 0 135 -132 3 -133 3 0 -141z"/>
<path d="M17760 8930 l0 -140 135 0 135 0 0 140 0 140 -135 0 -135 0 0 -140z"/>
<path d="M18082 8933 l3 -138 130 0 130 0 3 138 3 137 -136 0 -136 0 3 -137z"/>
<path d="M20400 14647 c-74 -73 -233 -227 -353 -342 l-218 -210 183 -187 c209
-215 245 -238 363 -238 83 0 138 25 200 91 77 83 94 154 55 244 -11 26 -20 49
-20 51 0 2 25 4 55 4 66 0 114 22 168 77 85 84 105 182 57 277 -28 55 -311
359 -338 364 -10 1 -69 -49 -152 -131z m232 -228 c44 -54 46 -89 8 -133 -34
-38 -71 -47 -113 -25 -34 18 -67 51 -67 68 0 18 120 132 134 127 6 -1 22 -18
38 -37z m-269 -281 c54 -64 67 -88 67 -123 0 -33 -59 -95 -89 -95 -35 0 -93
35 -141 85 l-45 46 72 70 c40 38 77 69 82 69 5 0 29 -24 54 -52z"/>
<path d="M9950 14673 c-18 -21 -119 -130 -224 -242 -105 -111 -191 -209 -191
-216 0 -11 136 -145 148 -145 3 0 36 32 73 70 37 39 71 70 76 70 8 0 279 -250
526 -484 l43 -41 84 90 c46 50 84 95 85 102 0 6 -15 23 -32 38 -18 15 -127
116 -243 225 -115 108 -228 212 -249 232 l-40 35 50 54 c27 30 59 66 72 80
l23 26 -71 69 c-39 38 -77 70 -84 72 -7 2 -28 -14 -46 -35z"/>
<path d="M8131 9450 c-44 -11 -79 -38 -116 -89 -25 -35 -30 -52 -29 -99 0
-113 72 -192 183 -200 140 -10 244 115 205 248 -32 109 -133 167 -243 140z"/>
<path d="M22325 9454 c-98 -24 -155 -98 -155 -199 0 -64 9 -86 54 -133 124
-132 338 -45 338 137 0 32 -7 71 -15 87 -17 32 -61 76 -92 92 -25 13 -103 22
-130 16z"/>
<path d="M20759 5468 c-45 -57 -88 -110 -96 -119 -14 -17 -28 -6 447 -388 58
-46 107 -89 109 -94 2 -7 -156 -8 -467 -3 l-471 7 -25 -28 c-76 -87 -175 -217
-171 -224 3 -4 133 -110 288 -236 155 -125 363 -293 462 -373 99 -80 185 -149
191 -153 11 -7 205 222 203 240 0 4 -34 35 -76 68 -230 182 -478 387 -482 397
-3 8 125 10 469 7 l473 -4 93 115 c52 63 94 120 93 125 0 11 -925 758 -945
763 -6 2 -49 -43 -95 -100z"/>
<path d="M9684 5483 c-55 -42 -193 -151 -308 -242 -116 -92 -222 -175 -237
-186 -97 -71 -308 -241 -309 -249 0 -4 20 -34 45 -65 25 -31 98 -124 164 -207
154 -196 217 -247 366 -296 99 -32 280 -33 377 0 126 42 233 118 303 216 140
198 163 435 60 641 -33 67 -328 454 -351 462 -6 2 -56 -31 -110 -74z m140
-393 c41 -53 70 -120 81 -187 17 -106 -50 -242 -154 -312 -83 -56 -116 -66
-206 -65 -66 0 -89 5 -131 26 -46 24 -174 147 -174 168 0 5 46 45 103 89 56
43 174 136 261 205 88 69 165 126 171 126 6 0 28 -22 49 -50z"/>
<path d="M19830 4342 c-14 -10 -71 -51 -127 -91 -57 -40 -103 -78 -103 -84 0
-7 12 -44 26 -82 14 -39 30 -81 34 -95 5 -14 22 -63 40 -110 17 -47 40 -110
50 -140 10 -30 39 -111 65 -180 25 -69 44 -131 43 -138 -2 -8 -15 -3 -38 16
-19 16 -165 126 -324 246 -219 165 -293 215 -306 209 -50 -25 -190 -130 -190
-143 0 -8 14 -59 31 -115 17 -55 40 -131 51 -170 11 -38 24 -81 28 -95 10 -31
47 -153 60 -200 5 -19 19 -64 30 -99 32 -104 29 -109 -38 -54 -71 58 -240 201
-417 352 -84 72 -136 110 -147 107 -26 -6 -257 -169 -257 -181 0 -5 24 -28 52
-51 29 -22 251 -198 495 -392 243 -194 445 -352 448 -352 7 0 113 71 197 133
78 57 75 37 26 202 -55 185 -68 230 -83 285 -8 30 -28 102 -45 159 -31 105
-32 124 -7 106 17 -12 288 -213 454 -336 l123 -91 77 53 c42 29 103 72 134 96
l58 44 -15 37 c-7 20 -98 292 -200 605 -103 312 -189 567 -193 567 -4 0 -18
-9 -32 -18z"/>
<path d="M10682 4199 c-117 -30 -206 -82 -299 -175 -136 -137 -201 -302 -190
-489 15 -239 154 -444 389 -573 101 -55 188 -76 318 -76 164 -1 271 36 397
136 161 128 250 323 241 530 -5 116 -32 208 -89 305 -44 75 -177 208 -254 255
-164 99 -347 130 -513 87z m301 -329 c132 -49 227 -188 227 -331 0 -200 -200
-370 -389 -330 -142 30 -247 123 -285 251 -39 132 6 274 114 360 89 70 224 91
333 50z"/>
<path d="M11986 3438 c-3 -7 -7 -51 -10 -98 -3 -47 -10 -132 -16 -190 -10
-118 -25 -279 -40 -450 -5 -63 -14 -162 -20 -220 -5 -58 -13 -150 -16 -205
l-7 -100 39 -14 c22 -7 63 -24 92 -37 29 -13 59 -24 67 -24 7 0 16 -4 19 -9 3
-5 16 -11 28 -14 13 -2 30 -8 39 -11 12 -5 42 23 120 115 57 67 147 172 199
233 53 61 113 133 134 159 22 26 42 44 46 40 4 -4 1 -100 -5 -213 -7 -113 -15
-277 -17 -365 l-3 -159 85 -34 c47 -19 103 -42 125 -52 82 -36 78 -37 139 37
63 78 625 789 693 877 24 32 41 62 36 65 -4 4 -53 25 -108 46 -55 21 -120 47
-143 58 -26 12 -47 16 -50 10 -4 -5 -67 -90 -141 -189 -74 -98 -177 -236 -229
-306 -52 -71 -99 -128 -105 -128 -11 0 -8 91 14 420 6 96 12 224 13 283 l1
108 -65 25 c-64 25 -76 30 -133 53 -25 10 -31 9 -45 -9 -268 -325 -499 -599
-506 -599 -9 -1 -4 74 14 227 6 45 14 117 19 160 5 42 15 124 22 182 8 58 14
134 14 168 l0 64 -135 54 c-142 57 -158 61 -164 42z"/>
<path d="M17575 3059 c-225 -34 -431 -164 -532 -336 -90 -154 -107 -357 -46
-543 53 -163 215 -331 375 -387 143 -51 275 -54 433 -12 187 51 344 170 432
326 60 109 76 172 77 308 0 133 -17 205 -77 320 -46 87 -174 213 -263 258
-120 60 -271 85 -399 66z m207 -337 c70 -31 141 -102 172 -173 39 -86 39 -193
0 -275 -35 -73 -98 -136 -171 -172 -51 -24 -69 -27 -153 -27 -112 1 -168 23
-238 93 -185 184 -105 485 151 568 60 20 180 13 239 -14z"/>
<path d="M14056 2708 c-3 -13 -19 -171 -36 -353 -17 -181 -35 -370 -40 -420
-25 -241 -30 -295 -32 -360 l-3 -70 60 -7 c33 -3 103 -10 156 -14 l96 -7 6 79
c9 97 23 246 37 379 5 55 13 137 17 183 3 45 9 85 13 87 4 3 26 -23 48 -58 22
-34 97 -152 167 -262 258 -406 298 -465 314 -469 29 -9 291 -29 297 -23 5 5
28 218 84 792 11 116 25 256 32 313 6 56 8 105 5 109 -7 6 -174 23 -262 26
l-50 2 -7 -70 c-4 -38 -12 -122 -18 -185 -6 -63 -15 -153 -20 -200 -5 -47 -12
-124 -16 -172 -4 -61 -10 -88 -19 -88 -7 0 -59 73 -116 163 -56 89 -126 198
-154 242 -29 44 -94 146 -145 226 l-94 146 -116 12 c-63 6 -134 14 -157 17
-38 5 -43 3 -47 -18z"/>
<path d="M16380 2719 c-109 -13 -251 -30 -335 -39 -218 -25 -265 -31 -325 -38
-75 -8 -69 7 -51 -152 6 -57 16 -109 21 -114 6 -6 42 -5 98 2 114 15 152 15
157 0 2 -7 22 -170 45 -363 22 -192 44 -383 50 -423 5 -40 10 -88 10 -107 0
-19 4 -36 9 -39 8 -5 95 4 245 26 l68 10 -6 67 c-4 36 -11 98 -16 136 -5 39
-14 115 -20 170 -7 55 -24 206 -40 335 -17 146 -24 237 -18 241 5 3 63 12 129
19 109 11 119 14 119 32 0 23 -19 191 -26 226 -5 24 -7 24 -114 11z"/>
</g>
</svg>
